<svg width="28" height="28" viewBox="0 0 28 28" fill="none" xmlns="http://www.w3.org/2000/svg">
<path d="M5.55991 21.875H25.375V0.875H5.50523C4.62618 0.877826 3.78394 1.22828 3.16236 1.84986C2.54078 2.47144 2.19033 3.31368 2.1875 4.19273V23.5293H2.1881C2.1881 23.5376 2.1875 23.5457 2.1875 23.5541C2.1875 25.49 3.70683 27.1252 5.50523 27.1252H25.375V25.375H5.50523C4.68475 25.375 3.9375 24.5071 3.9375 23.5539C3.9375 22.6439 4.68043 21.875 5.55991 21.875ZM19.6875 2.64321V12.0941L17.0406 9.77041L14.4375 12.0805V2.64321H19.6875ZM12.6875 2.625V14.4375H14.4179L17.047 12.1046L19.7042 14.4375H21.4375V2.625H23.625V20.125H7.44187L7.4375 2.625H12.6875ZM5.50523 2.625H5.6875L5.69166 20.125H5.5597C4.99067 20.1251 4.43152 20.2737 3.9375 20.5561V4.2064C3.93616 3.78894 4.10047 3.388 4.39437 3.09153C4.68827 2.79507 5.08777 2.62729 5.50523 2.625Z" fill="black"/>
</svg>
