<svg width="57" height="56" viewBox="0 0 57 56" fill="none" xmlns="http://www.w3.org/2000/svg">
<path d="M19.1667 21C18.5056 21 17.9518 20.776 17.5053 20.328C17.0589 19.88 16.8349 19.3262 16.8333 18.6667C16.8318 18.0071 17.0558 17.4533 17.5053 17.0053C17.9549 16.5573 18.5087 16.3333 19.1667 16.3333H47.1667C47.8278 16.3333 48.3823 16.5573 48.8303 17.0053C49.2783 17.4533 49.5016 18.0071 49.5 18.6667C49.4985 19.3262 49.2745 19.8808 48.828 20.3303C48.3816 20.7799 47.8278 21.0031 47.1667 21H19.1667ZM19.1667 30.3333C18.5056 30.3333 17.9518 30.1093 17.5053 29.6613C17.0589 29.2133 16.8349 28.6596 16.8333 28C16.8318 27.3405 17.0558 26.7867 17.5053 26.3387C17.9549 25.8907 18.5087 25.6667 19.1667 25.6667H47.1667C47.8278 25.6667 48.3823 25.8907 48.8303 26.3387C49.2783 26.7867 49.5016 27.3405 49.5 28C49.4985 28.6596 49.2745 29.2141 48.828 29.6637C48.3816 30.1132 47.8278 30.3365 47.1667 30.3333H19.1667ZM19.1667 39.6667C18.5056 39.6667 17.9518 39.4427 17.5053 38.9947C17.0589 38.5467 16.8349 37.9929 16.8333 37.3333C16.8318 36.6738 17.0558 36.12 17.5053 35.672C17.9549 35.224 18.5087 35 19.1667 35H47.1667C47.8278 35 48.3823 35.224 48.8303 35.672C49.2783 36.12 49.5016 36.6738 49.5 37.3333C49.4985 37.9929 49.2745 38.5475 48.828 38.997C48.3816 39.4466 47.8278 39.6698 47.1667 39.6667H19.1667ZM9.83334 21C9.17223 21 8.61845 20.776 8.17201 20.328C7.72556 19.88 7.50156 19.3262 7.50001 18.6667C7.49845 18.0071 7.72245 17.4533 8.17201 17.0053C8.62156 16.5573 9.17534 16.3333 9.83334 16.3333C10.4913 16.3333 11.0459 16.5573 11.497 17.0053C11.9481 17.4533 12.1713 18.0071 12.1667 18.6667C12.162 19.3262 11.938 19.8808 11.4947 20.3303C11.0513 20.7799 10.4976 21.0031 9.83334 21ZM9.83334 30.3333C9.17223 30.3333 8.61845 30.1093 8.17201 29.6613C7.72556 29.2133 7.50156 28.6596 7.50001 28C7.49845 27.3405 7.72245 26.7867 8.17201 26.3387C8.62156 25.8907 9.17534 25.6667 9.83334 25.6667C10.4913 25.6667 11.0459 25.8907 11.497 26.3387C11.9481 26.7867 12.1713 27.3405 12.1667 28C12.162 28.6596 11.938 29.2141 11.4947 29.6637C11.0513 30.1132 10.4976 30.3365 9.83334 30.3333ZM9.83334 39.6667C9.17223 39.6667 8.61845 39.4427 8.17201 38.9947C7.72556 38.5467 7.50156 37.9929 7.50001 37.3333C7.49845 36.6738 7.72245 36.12 8.17201 35.672C8.62156 35.224 9.17534 35 9.83334 35C10.4913 35 11.0459 35.224 11.497 35.672C11.9481 36.12 12.1713 36.6738 12.1667 37.3333C12.162 37.9929 11.938 38.5475 11.4947 38.997C11.0513 39.4466 10.4976 39.6698 9.83334 39.6667Z" fill="black"/>
</svg>
