<svg width="28" height="28" viewBox="0 0 28 28" fill="none" xmlns="http://www.w3.org/2000/svg">
<path d="M14 15.1666C13.6448 15.1624 13.2968 15.2672 13.003 15.4668C12.7091 15.6663 12.4835 15.9512 12.3564 16.2829C12.2293 16.6146 12.2069 16.9772 12.2921 17.3221C12.3774 17.6669 12.5663 17.9773 12.8333 18.2116V19.8333C12.8333 20.1427 12.9562 20.4394 13.175 20.6582C13.3938 20.877 13.6905 20.9999 14 20.9999C14.3094 20.9999 14.6061 20.877 14.8249 20.6582C15.0437 20.4394 15.1666 20.1427 15.1666 19.8333V18.2116C15.4337 17.9773 15.6225 17.6669 15.7078 17.3221C15.7931 16.9772 15.7706 16.6146 15.6435 16.2829C15.5165 15.9512 15.2908 15.6663 14.9969 15.4668C14.7031 15.2672 14.3552 15.1624 14 15.1666ZM19.8333 10.4999V8.16659C19.8333 6.61949 19.2187 5.13576 18.1247 4.0418C17.0308 2.94783 15.5471 2.33325 14 2.33325C12.4529 2.33325 10.9691 2.94783 9.87517 4.0418C8.78121 5.13576 8.16663 6.61949 8.16663 8.16659V10.4999C7.23837 10.4999 6.34813 10.8687 5.69175 11.525C5.03538 12.1814 4.66663 13.0717 4.66663 13.9999V22.1666C4.66663 23.0948 5.03538 23.9851 5.69175 24.6415C6.34813 25.2978 7.23837 25.6666 8.16663 25.6666H19.8333C20.7615 25.6666 21.6518 25.2978 22.3082 24.6415C22.9645 23.9851 23.3333 23.0948 23.3333 22.1666V13.9999C23.3333 13.0717 22.9645 12.1814 22.3082 11.525C21.6518 10.8687 20.7615 10.4999 19.8333 10.4999ZM10.5 8.16659C10.5 7.23833 10.8687 6.34809 11.5251 5.69171C12.1815 5.03533 13.0717 4.66659 14 4.66659C14.9282 4.66659 15.8185 5.03533 16.4748 5.69171C17.1312 6.34809 17.5 7.23833 17.5 8.16659V10.4999H10.5V8.16659ZM21 22.1666C21 22.476 20.877 22.7728 20.6583 22.9915C20.4395 23.2103 20.1427 23.3333 19.8333 23.3333H8.16663C7.85721 23.3333 7.56046 23.2103 7.34167 22.9915C7.12288 22.7728 6.99996 22.476 6.99996 22.1666V13.9999C6.99996 13.6905 7.12288 13.3938 7.34167 13.175C7.56046 12.9562 7.85721 12.8333 8.16663 12.8333H19.8333C20.1427 12.8333 20.4395 12.9562 20.6583 13.175C20.877 13.3938 21 13.6905 21 13.9999V22.1666Z" fill="black"/>
</svg>
