<svg width="49" height="50" viewBox="0 0 49 50" fill="none" xmlns="http://www.w3.org/2000/svg">
<path d="M38.1568 14.9883H10.1241C9.06195 14.9883 8.04335 15.4102 7.29233 16.1612C6.5413 16.9122 6.11938 17.9308 6.11938 18.993V37.014C6.11938 38.0761 6.5413 39.0947 7.29233 39.8457C8.04335 40.5967 9.06195 41.0187 10.1241 41.0187H38.1568C39.2189 41.0187 40.2375 40.5967 40.9885 39.8457C41.7395 39.0947 42.1614 38.0761 42.1614 37.014V18.993C42.1614 17.9308 41.7395 16.9122 40.9885 16.1612C40.2375 15.4102 39.2189 14.9883 38.1568 14.9883ZM18.7661 29.6374L21.9739 32.4406C22.5846 32.9733 23.3575 33.2376 24.1404 33.2376C24.9233 33.2376 25.6962 32.9713 26.3069 32.4406L29.5147 29.6374L29.4406 29.7115L36.7411 37.012H11.5397L18.8402 29.7115L18.7661 29.6374ZM10.1241 35.5983V22.0766L17.3365 28.3859L10.1241 35.5983ZM30.9443 28.3859L38.1568 22.0766V35.5923L30.9443 28.3859ZM38.1568 18.993V19.4134L24.9894 30.9349C24.7482 31.1272 24.4489 31.232 24.1404 31.232C23.8319 31.232 23.5326 31.1272 23.2914 30.9349L10.1241 19.4134V18.993H38.1568Z" fill="black"/>
</svg>
