<svg width="44" height="42" viewBox="0 0 44 42" fill="none" xmlns="http://www.w3.org/2000/svg">
<path d="M22.2546 24.5C26.2162 24.5 29.438 21.3605 29.438 17.5C29.438 13.6395 26.2162 10.5 22.2546 10.5C18.2929 10.5 15.0712 13.6395 15.0712 17.5C15.0712 21.3605 18.2929 24.5 22.2546 24.5ZM22.2546 14C24.2354 14 25.8463 15.5697 25.8463 17.5C25.8463 19.4303 24.2354 21 22.2546 21C20.2738 21 18.6629 19.4303 18.6629 17.5C18.6629 15.5697 20.2738 14 22.2546 14Z" fill="black"/>
<path d="M21.213 38.1745C21.5171 38.3855 21.8812 38.4989 22.2546 38.4989C22.6279 38.4989 22.992 38.3855 23.2962 38.1745C23.8421 37.7982 36.6735 28.77 36.6214 17.5C36.6214 9.78075 30.1761 3.5 22.2546 3.5C14.3331 3.5 7.88773 9.78075 7.88773 17.4912C7.83565 28.77 20.667 37.7982 21.213 38.1745ZM22.2546 7C28.1971 7 33.0297 11.7092 33.0297 17.5087C33.0674 25.2752 25.1495 32.249 22.2546 34.5362C19.3615 32.2472 11.4417 25.2717 11.4794 17.5C11.4794 11.7092 16.3121 7 22.2546 7Z" fill="black"/>
</svg>
