<svg width="46" height="37" viewBox="0 0 46 37" fill="none" xmlns="http://www.w3.org/2000/svg">
<path d="M10.8457 35.9406C10.8556 35.9472 10.8687 35.9439 10.8786 35.9505C10.956 35.994 11.0428 36.018 11.1315 36.0205C11.1804 36.0204 11.229 36.0138 11.2761 36.0008L23.1768 32.753L35.0776 36.0008C35.1247 36.0138 35.1733 36.0204 35.2221 36.0205C35.3106 36.0175 35.397 35.9931 35.474 35.9494C35.4849 35.9439 35.497 35.9461 35.5068 35.9395L45.3621 29.9169C45.464 29.8545 45.5428 29.7604 45.5863 29.6491C45.6297 29.5378 45.6356 29.4153 45.603 29.3004L40.1454 10.1374C40.1229 10.0577 40.0826 9.98414 40.0275 9.92228C39.9725 9.86042 39.9041 9.81185 39.8276 9.78023C39.7511 9.7486 39.6684 9.73475 39.5857 9.73971C39.503 9.74467 39.4226 9.76831 39.3504 9.80886L33.9169 12.8574C33.7979 12.9325 33.7123 13.0505 33.6778 13.187C33.6434 13.3234 33.6627 13.4679 33.7317 13.5905C33.8007 13.7131 33.9143 13.8045 34.0488 13.8458C34.1833 13.8871 34.3286 13.8751 34.4545 13.8123L39.2825 11.1021L44.4368 29.1985L35.6601 34.5631L33.5752 17.8847C33.5572 17.7405 33.4827 17.6094 33.368 17.5201C33.2533 17.4309 33.1078 17.3909 32.9636 17.4089C32.8194 17.4269 32.6883 17.5015 32.5991 17.6161C32.5099 17.7308 32.4698 17.8763 32.4879 18.0205L34.5761 34.7295L23.7243 31.7675V28.778C23.7243 28.6328 23.6667 28.4936 23.564 28.3909C23.4613 28.2882 23.322 28.2305 23.1768 28.2305C23.0316 28.2305 22.8924 28.2882 22.7897 28.3909C22.687 28.4936 22.6293 28.6328 22.6293 28.778V31.7675L11.7765 34.7295L13.8647 18.0205C13.8736 17.9491 13.8684 17.8766 13.8493 17.8072C13.8302 17.7379 13.7977 17.6729 13.7535 17.6161C13.7093 17.5594 13.6544 17.5118 13.5918 17.4763C13.5293 17.4407 13.4603 17.4178 13.3889 17.4089C13.3175 17.4 13.2451 17.4052 13.1757 17.4243C13.1063 17.4434 13.0414 17.476 12.9846 17.5201C12.9278 17.5643 12.8803 17.6192 12.8447 17.6818C12.8092 17.7444 12.7863 17.8133 12.7774 17.8847L10.6935 34.5631L1.91687 29.1996L7.07116 11.1043L11.8991 13.8145C12.0251 13.8773 12.1703 13.8893 12.3049 13.848C12.4394 13.8067 12.5529 13.7153 12.622 13.5927C12.691 13.4701 12.7103 13.3256 12.6758 13.1891C12.6414 13.0527 12.5558 12.9347 12.4368 12.8596L7.00218 9.80995C6.93019 9.76874 6.84973 9.74456 6.76695 9.73927C6.68417 9.73397 6.60128 9.74771 6.52463 9.77943C6.44799 9.81114 6.37962 9.85999 6.32479 9.92223C6.26995 9.98447 6.2301 10.0584 6.20828 10.1385L0.750665 29.3014C0.718032 29.4164 0.723913 29.5389 0.767411 29.6502C0.810908 29.7615 0.889634 29.8556 0.991571 29.9179L10.8457 35.9406Z" fill="black"/>
<path d="M22.8057 26.5682C22.9062 26.661 23.0378 26.7128 23.1746 26.7134C23.3114 26.714 23.4435 26.6634 23.5448 26.5715C23.9094 26.2397 32.4846 18.3708 32.4846 10.2874C32.4846 5.06735 28.3969 0.979614 23.1769 0.979614C17.9569 0.979614 13.8691 5.06735 13.8691 10.2874C13.8691 18.2307 22.441 26.231 22.8057 26.5682ZM23.1769 2.07464C27.8581 2.07464 31.3896 5.60501 31.3896 10.2874C31.3896 16.9637 24.8271 23.7967 23.1802 25.4064C21.5365 23.7781 14.9642 16.8553 14.9642 10.2874C14.9642 5.60501 18.4956 2.07464 23.1769 2.07464Z" fill="black"/>
<path d="M28.1045 10.2874C28.1045 7.5706 25.8937 5.35974 23.1769 5.35974C20.4601 5.35974 18.2493 7.5706 18.2493 10.2874C18.2493 13.0041 20.4601 15.215 23.1769 15.215C25.8937 15.215 28.1045 13.0041 28.1045 10.2874ZM23.1769 14.12C21.0635 14.12 19.3443 12.4008 19.3443 10.2874C19.3443 8.17396 21.0635 6.45477 23.1769 6.45477C25.2903 6.45477 27.0095 8.17396 27.0095 10.2874C27.0095 12.4008 25.2903 14.12 23.1769 14.12Z" fill="black"/>
</svg>
