<svg width="38" height="38" viewBox="0 0 38 38" fill="none" xmlns="http://www.w3.org/2000/svg">
<path d="M2.90806 13.2701H35.1457M2.90806 24.7836H35.1457M1.75671 19.0269C1.75671 21.2948 2.20342 23.5406 3.07133 25.6359C3.93923 27.7312 5.21134 29.635 6.81502 31.2387C8.41871 32.8424 10.3226 34.1145 12.4179 34.9824C14.5132 35.8503 16.7589 36.297 19.0269 36.297C21.2948 36.297 23.5406 35.8503 25.6359 34.9824C27.7312 34.1145 29.635 32.8424 31.2387 31.2387C32.8424 29.635 34.1145 27.7312 34.9824 25.6359C35.8503 23.5406 36.297 21.2948 36.297 19.0269C36.297 14.4465 34.4775 10.0538 31.2387 6.81502C27.9999 3.57624 23.6072 1.75671 19.0269 1.75671C14.4465 1.75671 10.0538 3.57624 6.81502 6.81502C3.57624 10.0538 1.75671 14.4465 1.75671 19.0269Z" stroke="black" stroke-width="2" stroke-linecap="round" stroke-linejoin="round"/>
<path d="M18.0674 1.75671C14.8347 6.93701 13.1208 12.9206 13.1208 19.0269C13.1208 25.1331 14.8347 31.1167 18.0674 36.297M19.9863 1.75671C23.219 6.93701 24.9328 12.9206 24.9328 19.0269C24.9328 25.1331 23.219 31.1167 19.9863 36.297" stroke="black" stroke-width="2" stroke-linecap="round" stroke-linejoin="round"/>
</svg>
