<svg width="40" height="41" viewBox="0 0 40 41" fill="none" xmlns="http://www.w3.org/2000/svg">
<path d="M13.1509 5.85791C13.9643 5.85791 17.2181 13.179 17.2181 13.9924C17.2181 15.6193 14.7778 17.2462 13.9643 18.8731C13.1509 20.5 14.7778 22.1269 16.4047 23.7538C17.0392 24.3883 19.6585 27.0076 21.2854 26.1941C22.9123 25.3807 24.5392 22.9403 26.1661 22.9403C26.9795 22.9403 34.3006 26.1941 34.3006 27.0076C34.3006 30.2614 31.8602 32.7017 29.4199 33.5152C26.9795 34.3286 25.3526 34.3286 22.0988 33.5152C18.845 32.7017 16.4047 31.8883 12.3374 27.821C8.27019 23.7538 7.45674 21.3134 6.64329 18.0596C5.82984 14.8059 5.82984 13.179 6.64329 10.7386C7.45674 8.29826 9.89709 5.85791 13.1509 5.85791Z" fill="black" fill-opacity="0.3" stroke="black" stroke-width="2" stroke-linecap="round" stroke-linejoin="round"/>
</svg>
